<svg version="1.2" xmlns="http://www.w3.org/2000/svg" viewBox="0 0 26 27" width="26" height="27"><style>.a{fill:#fff}</style><path class="a" d="m24.3 9.2h-2.4v3c0.3 0.3 0.5 0.8 0.5 1.3 0 1.1-0.9 2-2 2-1 0-1.9-0.9-1.9-2 0-0.6 0.3-1.1 0.6-1.5v-2.8h-11.1v2.9c0.4 0.4 0.6 0.9 0.6 1.4 0 1.1-0.9 2-2 2-1 0-1.9-0.9-1.9-2 0-0.5 0.2-1 0.6-1.4v-2.9h-2.7c-0.9 0-1.6 0.7-1.6 1.6v14.6c0 0.9 0.7 1.6 1.6 1.6h21.7c0.8 0 1.5-0.7 1.5-1.6v-14.6c0-0.9-0.7-1.6-1.5-1.6zm-3.8 5.1c-0.4 0-0.8-0.4-0.8-0.8v-5.7c0-3.4-2.7-6.2-6.1-6.2-3.4 0-6.2 2.8-6.2 6.2v5.7c0 0.4-0.3 0.8-0.8 0.8-0.4 0-0.8-0.4-0.8-0.8v-5.7c0-4.3 3.5-7.8 7.8-7.8 4.2 0 7.7 3.5 7.7 7.8v5.7c0 0.4-0.3 0.8-0.8 0.8z"/></svg>