<svg version="1.2" xmlns="http://www.w3.org/2000/svg" viewBox="0 0 26 22" width="26" height="22"><style>.a{fill:#fff}</style><path class="a" d="m24.7 1.2q-1.5 0.9-3.2 1.3c-1-1-2.3-1.7-3.7-1.7-2.9 0-5.1 2.4-5.1 5.3q0 0.6 0.1 1.2c-4.2-0.2-8-2.3-10.5-5.5-0.4 0.8-0.7 1.7-0.7 2.7 0 1.8 0.9 3.4 2.3 4.3-0.9 0-1.7-0.2-2.3-0.6v0.1c0 2.5 1.7 4.6 4 5.1q-0.6 0.2-1.3 0.2-0.5 0-1-0.1c0.7 2.1 2.6 3.6 4.8 3.7-1.7 1.4-3.9 2.2-6.3 2.2q-0.6 0-1.2 0c2.2 1.5 4.9 2.3 7.8 2.3 9.3 0 14.5-8 14.5-15l-0.1-0.7c1-0.7 1.9-1.6 2.6-2.7q-1.4 0.6-2.9 0.8c1-0.6 1.8-1.6 2.2-2.9z"/></svg>